<svg width="98" height="65" fill="none" xmlns="http://www.w3.org/2000/svg"><path fill-rule="evenodd" clip-rule="evenodd" d="M74.15 63.379V31.072L44.857 2.319a2 2 0 0 0-2.81.008L13.082 31.072l.255 32.307H74.15Z" fill="#fff" stroke="#333" stroke-width="1.5"/><path fill-rule="evenodd" clip-rule="evenodd" d="M81.543 64.024H69.164c-.612 0-1.309-.234-1.856-1.093-.547-.858-.46-3.409 1.029-3.576.415-2.168 1.757-3.203 4.044-3.203h.105a7.818 7.818 0 0 1 15.432-2.083 6.007 6.007 0 0 1 7.108 4.748c1.904.215 2.166 2.93 1.87 3.794-.295.863-.66 1.413-1.444 1.413h-13.91Z" fill="#fff"/><path d="M81.543 64.024v-.75h-.007l.007.75ZM67.308 62.93l-.632.404.632-.404Zm1.029-3.576.084.745.548-.062.104-.542-.736-.142Zm4.15-3.202-.017.75.8.017-.035-.799-.749.032Zm15.431-2.083-.73.167.162.716.72-.148-.152-.735Zm7.108 4.748-.737.141.104.542.55.062.083-.745Zm1.87 3.793-.709-.244.71.244Zm-15.36.663h-.002v1.5h.015l-.013-1.5Zm-.002 0h-12.37v1.5h12.37v-1.5Zm-12.37 0c-.382 0-.827-.124-1.223-.745l-1.265.806c.698 1.095 1.646 1.439 2.488 1.439v-1.5Zm-1.223-.745c-.054-.086-.13-.284-.168-.588a3.117 3.117 0 0 1 .024-.923c.123-.674.396-.892.624-.918l-.168-1.49c-1.26.141-1.775 1.282-1.931 2.14a4.623 4.623 0 0 0-.037 1.377c.053.421.172.863.391 1.208l1.265-.806Zm1.132-3.033c.184-.958.553-1.577 1.048-1.966.5-.394 1.225-.628 2.26-.628v-1.5c-1.252 0-2.342.283-3.188.95-.851.669-1.361 1.652-1.593 2.861l1.473.283Zm3.308-2.594h.088l.034-1.499a5.48 5.48 0 0 0-.122-.001v1.5Zm.854-.78a7.286 7.286 0 0 1-.006-.304h-1.5c0 .123.003.245.008.367l1.498-.064Zm-.006-.304a7.068 7.068 0 0 1 7.068-7.068v-1.5a8.568 8.568 0 0 0-8.568 8.568h1.5Zm7.068-7.068a7.07 7.07 0 0 1 6.89 5.487l1.462-.334a8.57 8.57 0 0 0-8.352-6.653v1.5Zm7.772 6.055c.342-.07.697-.107 1.06-.107v-1.5a6.76 6.76 0 0 0-1.362.138l.302 1.469Zm1.06-.107a5.257 5.257 0 0 1 5.16 4.261l1.474-.282a6.757 6.757 0 0 0-6.634-5.48v1.5Zm5.813 4.865c.532.06.908.459 1.132 1.142.108.33.163.687.173 1.004.011.331-.027.562-.06.658l1.419.487c.115-.335.155-.767.14-1.195a5.193 5.193 0 0 0-.247-1.421c-.31-.945-1.017-2.01-2.39-2.165l-.167 1.49Zm1.245 2.804c-.14.408-.264.639-.381.766-.083.09-.17.14-.353.14v1.5c.6 0 1.087-.223 1.456-.624.335-.364.54-.84.697-1.295l-1.419-.487Zm-.734.907h-13.91v1.5h13.91v-1.5Z" fill="#333"/><path d="m76 33-1.85-1.928L44.857 2.319a2 2 0 0 0-2.81.008L13.082 31.072 11 33" stroke="#333" stroke-width="1.5"/><path fill-rule="evenodd" clip-rule="evenodd" d="M5.149 63.652c-2.305 0-4.174-1.86-4.174-4.156 0-2.295 1.869-4.155 4.174-4.155.647 0 1.26.146 1.807.408A5.85 5.85 0 0 1 12.424 52c3.232 0 5.852 2.608 5.852 5.826 0 3.148-2.507 5.712-5.642 5.822l-.21.004H5.149Z" fill="#fff" stroke="#333" stroke-width="1.5"/><path clip-rule="evenodd" d="m38.283 22.965-.036-4.226c0-2.298 2.136-4.16 4.772-4.16 2.635 0 4.771 1.862 4.771 4.16l.036 4.226h-9.543Z" stroke="#333" stroke-width="1.5"/><path d="M36.398 22.965h12.928" stroke="#333" stroke-width="1.5"/><mask id="a" fill="#fff"><path fill-rule="evenodd" clip-rule="evenodd" d="m20.124 44.776.072 18.419h19.086l-.071-18.419c0-4.595-4.273-8.32-9.544-8.32-5.27 0-9.543 3.725-9.543 8.32Zm46.285-7.886H46.878v17.36h19.53V36.89Z"/></mask><path fill-rule="evenodd" clip-rule="evenodd" d="m20.124 44.776.072 18.419h19.086l-.071-18.419c0-4.595-4.273-8.32-9.544-8.32-5.27 0-9.543 3.725-9.543 8.32Zm46.285-7.886H46.878v17.36h19.53V36.89Z" fill="#FFE600"/><path d="m20.196 63.195-3 .012.011 2.988h2.989v-3Zm-.072-18.419h-3v.012l3-.011Zm19.158 18.419v3h3.012l-.012-3.012-3 .012Zm-.071-18.419h-3v.012l3-.011Zm7.667-7.886v-3h-3v3h3Zm19.53 0h3v-3h-3v3Zm-19.53 17.36h-3v3h3v-3Zm19.53 0v3h3v-3h-3Zm-43.212 8.933-.072-18.418-6 .023.072 18.419 6-.024Zm16.086-2.988H20.196v6h19.086v-6Zm-3.071-15.407.071 18.419 6-.024-.071-18.418-6 .023Zm-6.544-5.332c4.014 0 6.544 2.755 6.544 5.32h6c0-6.625-6.016-11.32-12.544-11.32v6Zm-6.543 5.32c0-2.565 2.53-5.32 6.543-5.32v-6c-6.528 0-12.543 4.695-12.543 11.32h6Zm23.754-4.886h19.53v-6h-19.53v6Zm3 14.36V36.89h-6v17.36h6Zm16.53-3h-19.53v6h19.53v-6Zm-3-14.36v17.36h6V36.89h-6Z" fill="#fff" mask="url(#a)"/><path stroke="#333" stroke-width="1.5" d="M46.878 36.89h19.531v17.361H46.878z"/><path clip-rule="evenodd" d="m20.197 63.365-.072-18.588c0-4.596 4.273-8.32 9.543-8.32s9.544 3.724 9.544 8.32l.071 18.588H20.196Z" stroke="#333" stroke-width="1.5"/><path d="M33.509 53.306v-3.318m11.871 4.263h22.526" stroke="#333" stroke-width="1.5"/></svg>