<svg width="77" height="63" fill="none" xmlns="http://www.w3.org/2000/svg"><path d="M21 3a2 2 0 0 1 2-2h50a2 2 0 0 1 2 2v5H21V3Zm4 5h46v52a2 2 0 0 1-2 2H27a2 2 0 0 1-2-2V8Z" fill="#fff" stroke="#333" stroke-width="1.5"/><path fill="#FFE600" stroke="#fff" stroke-width="3" d="M26.5 13.5h43v32h-43z"/><path stroke="#333" stroke-width="1.5" d="M25 12h46v35H25z"/><path d="m51 12 16.3 19.235c2.971 3.505 8.7 1.404 8.7-3.19 0-1.31-.52-2.565-1.445-3.49L71 21" stroke="#333" stroke-width="1.5"/><path fill-rule="evenodd" clip-rule="evenodd" d="M11 22a3 3 0 0 0-3 3v13.43c-4.057 1.274-7 5.064-7 9.542h20c0-4.478-2.943-8.268-7-9.542V25a3 3 0 0 0-3-3Z" fill="#fff"/><path d="m8 38.43.225.715.525-.165v-.55H8Zm-7 9.542H.25v.75H1v-.75Zm20 0v.75h.75v-.75H21Zm-7-9.542h-.75v.55l.525.165.225-.715ZM8.75 25A2.25 2.25 0 0 1 11 22.75v-1.5A3.75 3.75 0 0 0 7.25 25h1.5Zm0 13.43V25h-1.5v13.43h1.5Zm-.975-.716C3.415 39.084.25 43.158.25 47.972h1.5a9.254 9.254 0 0 1 6.475-8.827l-.45-1.43ZM1 48.722h20v-1.5H1v1.5Zm20.75-.75c0-4.815-3.165-8.888-7.525-10.258l-.45 1.431a9.254 9.254 0 0 1 6.475 8.827h1.5ZM13.25 25v13.43h1.5V25h-1.5ZM11 22.75A2.25 2.25 0 0 1 13.25 25h1.5A3.75 3.75 0 0 0 11 21.25v1.5Z" fill="#333"/><path d="m3.611 60.472.786-11h13.206l.786 11H3.611Z" fill="#FFE600" stroke="#fff" stroke-width="3"/><path d="M3 47.972h16l1 14H2l1-14ZM7.75 53v9m3-3.028v3" stroke="#333" stroke-width="1.5"/></svg>