<svg xmlns="http://www.w3.org/2000/svg" xmlns:xlink="http://www.w3.org/1999/xlink" width="222" height="115"><defs><path id="a" d="M.179.404h120.326V3.91H.18z"/><path id="c" d="m.199 1.613 6.8-1.574L8.46 5.482l-6.8 1.573"/><path id="e" d="M.079 2.876 11.955.126l1.51 5.625L1.59 8.499"/></defs><g fill="none" fill-rule="evenodd"><path stroke="#E5E5E5" stroke-linecap="round" stroke-width="1.2" d="M189.195 83.968v30.148h29.139v-8.53" style="mix-blend-mode:multiply"/><path fill="#EEE" d="M189.982 114.116h-19.587V83.968h19.587z"/><g fill="#D8D8D8"><path fill-opacity=".444" d="M211.855 100.355h-9.972V77h9.972zm0 13.445h-9.972v-3.247h9.972z" style="mix-blend-mode:multiply"/><path d="M218.281 84.343H163.03v3.585h55.251z" opacity=".2" style="mix-blend-mode:multiply"/></g><path stroke="#E5E5E5" stroke-linecap="round" stroke-width="1.2" d="M170.395 114.116h19.587V83.968m-.001.63v-6.604m-26.315 5.952H221.1v-6.254h-57.434" style="mix-blend-mode:multiply"/><g fill="#F8D032"><path d="m126.934 102.63.002 4.536-31.643.01-.003-4.55 16.38-.007-63.166-.045S45.8 114.193 56.91 114.2l108.105.077c11.109.008 8.424-11.616 8.424-11.616l-46.506-.032z"/><path d="m127.257 102.612-15.264.007 15.264.01z"/></g><path fill="#B0B0B0" fill-opacity=".4" d="M155.433 102.196h7.924v-3.697h-7.924z"/><path fill="#D8D8D8" fill-opacity=".444" d="M67.824 102.196h87.609v-3.697H67.824z" style="mix-blend-mode:multiply"/><g transform="translate(50.564 110.022)"><mask id="b" fill="#fff"><use xlink:href="#a"/></mask><path fill="#B0B0B0" fill-opacity=".4" d="M.179.712c.462 1.51 2.406 3.2 7.266 3.2l105.914-.157c4.236 0 6.731-1.809 7.146-3.351" mask="url(#b)"/></g><path stroke="#484848" stroke-linecap="round" stroke-linejoin="round" stroke-width="1.2" d="M61.22 81.246V39l101.742.074-.042 63.668"/><path stroke="#484848" stroke-linecap="round" stroke-linejoin="round" stroke-width="1.2" d="m156.043 102.376.044-56.43c.002-.61-.53-1.106-1.182-1.107l-72.069-.055-8.838-.005-5.109-.002c-.655 0-1.185.494-1.188 1.107"/><path fill="#FFF" fill-opacity=".204" d="M68.583 50.464h53.515v37.258H68.583z"/><path fill="#E8E8E8" d="M81.459 62.092s-2.175 5.298-2.446 7.569c-.272 2.27.543 2.27.543 2.27s4.892.505 8.153 1.262c3.262.756 8.154 1.766 13.861 1.766 5.707 0 12.502-1.262 12.502-1.262s.815-2.144-.816-2.775c-1.63-.63-6.794-1.766-6.794-1.766s-1.902-.252-3.533-1.261c-1.63-1.01-5.98-4.794-5.98-4.794s-2.989-1.513-5.435.253c-2.446 1.766-3.805 2.522-5.707 1.766-1.902-.757-2.174-1.514-2.174-1.514l-.544-.505c-.543-.504-1.63-1.009-1.63-1.009z"/><path fill="#F7D032" d="M108.093 76.8c-2.365.31-4.762.278-7.142.205-2.958-.09-5.933-.425-8.885-.643-3.049-.226-6.099-.457-9.148-.686l-3.19-.24s-1.929.013-1.53-1.266c.444-1.42.42-2.316 1.265-2.253 0 0 5.403.415 12.927 2.096 7.522 1.68 19.401.778 22.404-.423-.215 2.518-4.691 2.948-6.701 3.21zM82.42 66.35s.647-1.2 2.179-1.975l-1.159-1.47-.876-1.131-.76-.056-.928 1.115-.893 2.421-.031.349 1.067.403 1.402.344z"/><g transform="translate(78.414 67.138)"><mask id="d" fill="#fff"><use xlink:href="#c"/></mask><path fill="#B0B0B0" d="M.85 1.462s4.322.51 5.75 1.457c1.426.946 1.383 1.699 1.495 2.284l-.034.371S4.242 4.55 1.05 4.78" mask="url(#d)" opacity=".234" style="mix-blend-mode:multiply"/></g><g transform="translate(103.145 69.156)"><mask id="f" fill="#fff"><use xlink:href="#e"/></mask><path fill="#B0B0B0" d="M.809 5.593s1.338-2.412 3.008-3.19c1.67-.78 4.108.006 5.58-1.246 0 0 2.966.488 2.284 2.827-.684 2.338-.287.68-.287.68S5.401 5.956.81 5.592" mask="url(#f)" opacity=".234" style="mix-blend-mode:multiply"/></g><path d="M91.781 75.157c7.456 1.665 19.185.796 22.32-.39.328-.35.54-.769.583-1.27-3.003 1.202-14.88 2.101-22.405.422-7.523-1.68-12.927-2.095-12.927-2.095-.658-.05-.79.483-1.024 1.394.127-.117.293-.173.526-.156 0 0 5.404.416 12.927 2.095z" fill="#B0B0B0" fill-opacity=".4"/><path fill="#F7D032" d="M90.354 63.768s2.027-5.341 4.614-3.046c2.585 2.294 1.94 1.842 1.94 1.842s-1.992-.42-3.009-.132c-1.018.288-3.79 1.87-3.79 1.87l.245-.534z"/><path stroke="#EDDC85" stroke-linecap="round" stroke-width=".6" d="M79.181 71.922c4.572-.097 8.819 1.117 13.208 2.09 2.942.654 6 .882 9.019.984 2.523.084 5.055.026 7.57-.211 1.886-.178 4.07-.447 5.817-1.194"/><path fill="#D8D8D8" fill-opacity=".444" d="M125.186 50.464h24.699v3.821h-24.7zm0 5.732h24.699v3.821h-24.7z" style="mix-blend-mode:multiply"/><path fill="#E7E7E7" stroke="#484848" stroke-dasharray="2.56,1.92" stroke-width=".64" d="M126.215 63.839h23.67v7.642h-23.67V63.84zm0 30.571V75.302h23.67v19.106"/><g stroke="#E5E5E5" stroke-linecap="round" stroke-width="1.2"><path d="M20.601 94.864C13.151 93.49 8.676 90.62 7.175 86.25c-2.253-6.555 11.284-11.772 8.192-17.247-3.092-5.475-10.714-6.742-7.798-12.372 2.915-5.63 8.027-9.388 1.9-14.974-6.128-5.587-3.656-10.97 4.3-11.806 7.954-.836 14.645 6.738 12.061 12.567-1.56 3.52.065 4.523 2.298 5.666m-8.33 8.207c-2.229-6.994-2.2-13.537-2.593-17.275" style="mix-blend-mode:multiply"/><path d="M25.043 71.221c-.698-3.214-1.88-6.508-2.677-8.515a35.877 35.877 0 0 0-.754-1.788m-1.227-2.601c-3.389.349-5.917-.18-7.584-1.586m15.456 7.834c-1.36.957-2.42 1.664-3.179 2.124" style="mix-blend-mode:multiply"/></g><path stroke="#E5E5E5" stroke-linecap="round" stroke-width="1.2" d="M54.705 75.526c1.726 4.265 2.907 9.524.899 13.9-2.437 5.313-6.638 8.638-12.6 9.978m-14.657-2.557c-6.576-4.952-9.572-10.834-8.988-17.645.876-10.217 16.422-12.172 15.981-21.194-.25-5.132-2.556-8.92-3.495-12.49-.711-2.704-.638-5.283 1.712-8.224m3.743-4.19c4.218-4.467 7.664-8.25 5.083-16.312C39.053 6.389 43.96-.261 52.055 1.758c8.096 2.018 11.044 15.473 5.822 22.71-5.221 7.237 1.237 8.194 2.42 15.285 1.183 7.092-1.052 12.638-6.332 17.11-5.28 4.472-4.216 8.623-2.785 11.173" style="mix-blend-mode:multiply"/><path stroke="#E5E5E5" stroke-linecap="round" stroke-width="1.2" d="M37.153 94.393c5.415-17.128 8.45-28.188 9.103-33.182m.261-8.166c-.02-4.998.492-11.61 1.204-17.996m.77-6.276c.78-5.804 1.64-10.828 2.29-13.432m-2.07 31.009 5.577-1.7M43.953 75.38l5.093.24M38.785 89.745l10.429-.491m-4.757-47.83-2.914-4.849m-2.13 41.212-5.825-5.575m1.901 16.953-8.978-5.33" style="mix-blend-mode:multiply"/><path fill="#D8D8D8" d="M20.87 89.47c-6.064-4.288-7.683-9.567-4.859-15.834 4.237-9.402 15.222-10.83 16.7-14.002 1.479-3.172 1.635-10.516-1.967-17.116-3.602-6.599 7.996 14.626 4.104 19.375-3.892 4.75-11.572 9.244-14.334 13.155-1.841 2.607-1.723 7.415.356 14.423z" opacity=".2" style="mix-blend-mode:multiply"/><path stroke="#E5E5E5" stroke-linecap="round" stroke-width="1.2" d="M50 98H1c0 10.015 15.143 16 33.822 16 5.458 0 10.614-.51 15.178-1.484M2.184 99.5h13.632m5.25 0h4.868" style="mix-blend-mode:multiply"/></g></svg>